<svg xmlns="http://www.w3.org/2000/svg" xmlns:svg="http://www.w3.org/2000/svg" id="svg8" width="377.953" height="98.238" version="1.1" viewBox="0 0 100 25.992"><metadata id="metadata5"/><g id="layer1" transform="translate(-28.388279,-188.26425)"><flowRoot id="flowRoot819" transform="scale(0.26458333)" xml:space="preserve" style="font-style:normal;font-weight:400;font-size:40px;line-height:1.25;font-family:sans-serif;letter-spacing:0;word-spacing:0;fill:#000;fill-opacity:1;stroke:none"><flowRegion id="flowRegion821"><rect id="rect823" width="123.239" height="72.984" x="73.741" y="421.726"/></flowRegion><flowPara id="flowPara825">@Dirque_L</flowPara></flowRoot><path style="opacity:1;fill:#25303e;fill-opacity:1;stroke:none;stroke-width:.08255586;stroke-linecap:round;stroke-linejoin:miter;stroke-miterlimit:4;stroke-dasharray:none;stroke-dashoffset:0;stroke-opacity:1;paint-order:markers fill stroke" id="rect905" d="m 30.638271,188.26425 c -1.2465,0 -2.249992,1.04332 -2.249992,2.33929 v 13.25614 8.05749 2.33929 h 2.249992 95.500109 2.24999 v -2.33929 -8.05749 -13.25614 c 1e-5,-1.29597 -1.00349,-2.33929 -2.24999,-2.33929 z"/><path style="opacity:1;fill:#16202c;fill-opacity:1;stroke:none;stroke-width:.08158947;stroke-linecap:round;stroke-linejoin:miter;stroke-miterlimit:4;stroke-dasharray:none;stroke-dashoffset:0;stroke-opacity:1;paint-order:markers fill stroke" id="rect905-3" d="m 31.020316,188.66446 c -1.236527,0 -2.23199,1.02726 -2.23199,2.30327 v 13.05203 7.93343 2.30327 h 2.23199 94.736024 2.23198 v -2.30327 -7.93343 -13.05203 c 1e-5,-1.27601 -0.99546,-2.30327 -2.23198,-2.30327 z"/><path style="fill:none;fill-opacity:1;stroke:#8899a3;stroke-width:.5;stroke-linecap:round;stroke-linejoin:round;stroke-miterlimit:4;stroke-dasharray:none;stroke-opacity:1" id="path922" d="m 119.8657,196.26934 1.6064,1.67727 1.63002,-1.58277"/></g></svg>